<?xml version="1.0" encoding="utf-8"?>
<!-- Generator: Adobe Illustrator 17.0.2, SVG Export Plug-In . SVG Version: 6.00 Build 0)  -->
<!DOCTYPE svg PUBLIC "-//W3C//DTD SVG 1.1//EN" "http://www.w3.org/Graphics/SVG/1.1/DTD/svg11.dtd">
<svg version="1.1" id="Layer_1" xmlns="http://www.w3.org/2000/svg" xmlns:xlink="http://www.w3.org/1999/xlink" x="0px" y="0px"
	 width="138.739px" height="75.5px" viewBox="0 0 138.739 75.5" enable-background="new 0 0 138.739 75.5" xml:space="preserve">
<rect x="0" fill="#8A8C8E" width="138.739" height="75.5"/>
<g>
	<path fill="#FFFFFF" d="M48.456,32.91h2.369v8.783h5.252v1.992h-7.622V32.91z"/>
	<path fill="#FFFFFF" d="M62.24,32.655c3.335,0,5.296,2.49,5.296,5.689c0,3.109-1.962,5.6-5.296,5.6s-5.298-2.49-5.298-5.6
		C56.942,35.145,58.904,32.655,62.24,32.655z M62.24,41.952c2.128,0,2.928-1.811,2.928-3.608c0-1.886-0.8-3.697-2.928-3.697
		s-2.928,1.811-2.928,3.697C59.312,40.14,60.111,41.952,62.24,41.952z"/>
	<path fill="#FFFFFF" d="M76.945,42.464c-0.83,1.072-1.916,1.48-2.958,1.48c-3.335,0-5.298-2.49-5.298-5.6
		c0-3.199,1.963-5.689,5.298-5.689c2.203,0,4.286,1.358,4.543,3.803h-2.264c-0.272-1.193-1.163-1.811-2.279-1.811
		c-2.128,0-2.928,1.811-2.928,3.697c0,1.796,0.799,3.608,2.928,3.608c1.539,0,2.43-0.831,2.566-2.324h-2.385v-1.767h4.527v5.825
		h-1.509L76.945,42.464z"/>
	<path fill="#FFFFFF" d="M85.448,32.655c3.335,0,5.298,2.49,5.298,5.689c0,3.109-1.963,5.6-5.298,5.6s-5.298-2.49-5.298-5.6
		C80.151,35.145,82.113,32.655,85.448,32.655z M85.448,41.952c2.128,0,2.928-1.811,2.928-3.608c0-1.886-0.8-3.697-2.928-3.697
		c-2.127,0-2.927,1.811-2.927,3.697C82.52,40.14,83.321,41.952,85.448,41.952z"/>
</g>
</svg>
